<svg width="110" height="24" viewBox="0 0 110 24" fill="none" xmlns="http://www.w3.org/2000/svg">
<path d="M3.91542 23V3.442H0.275422V0.6H10.7614V3.442H7.12142V23H3.91542ZM16.4895 23V0.6H25.3235V3.442H19.6955V10.246H25.0435V13.088H19.6955V20.158H25.3235V23H16.4895ZM36.5031 23.238C34.7018 23.238 33.3998 22.874 32.5971 22.146C31.7945 21.4087 31.3558 20.1907 31.2811 18.492C31.2718 18.072 31.2671 17.6567 31.2671 17.246C31.2671 16.8353 31.2718 16.4247 31.2811 16.014C31.2998 15.594 31.3278 15.174 31.3651 14.754H34.4031C34.3658 15.5007 34.3425 16.2333 34.3331 16.952C34.3238 17.6613 34.3471 18.352 34.4031 19.024C34.4405 19.5653 34.6271 19.962 34.9631 20.214C35.2991 20.4567 35.8125 20.578 36.5031 20.578C37.1471 20.578 37.6325 20.4567 37.9591 20.214C38.2858 19.962 38.4725 19.5653 38.5191 19.024C38.5565 18.66 38.5798 18.282 38.5891 17.89C38.5985 17.498 38.5938 17.106 38.5751 16.714C38.5658 16.322 38.5471 15.9487 38.5191 15.594C38.4911 15.0153 38.3325 14.5533 38.0431 14.208C37.7538 13.8627 37.3385 13.6247 36.7971 13.494L34.7251 13.004C33.8571 12.7987 33.1711 12.4907 32.6671 12.08C32.1631 11.66 31.7991 11.1233 31.5751 10.47C31.3605 9.80733 31.2391 9.00933 31.2111 8.076C31.2018 7.572 31.1971 7.07267 31.1971 6.578C31.2065 6.08333 31.2158 5.584 31.2251 5.08C31.2625 3.95067 31.4631 3.04067 31.8271 2.35C32.2005 1.65933 32.7651 1.15533 33.5211 0.837999C34.2865 0.520665 35.2805 0.361999 36.5031 0.361999C38.2765 0.361999 39.5598 0.725999 40.3531 1.454C41.1465 2.182 41.5758 3.39533 41.6411 5.094C41.6598 5.58867 41.6645 6.15333 41.6551 6.788C41.6458 7.42267 41.6271 8.05267 41.5991 8.678H38.5051C38.5331 7.93133 38.5518 7.222 38.5611 6.55C38.5705 5.878 38.5611 5.21533 38.5331 4.562C38.5145 4.02067 38.3371 3.62867 38.0011 3.386C37.6745 3.14333 37.1705 3.022 36.4891 3.022C35.8265 3.022 35.3271 3.14333 34.9911 3.386C34.6645 3.62867 34.4778 4.02067 34.4311 4.562C34.3845 5.15933 34.3611 5.74733 34.3611 6.326C34.3611 6.89533 34.3845 7.47867 34.4311 8.076C34.4685 8.664 34.5898 9.13067 34.7951 9.476C35.0005 9.82133 35.3505 10.05 35.8451 10.162L37.7211 10.568C38.6825 10.7827 39.4525 11.1047 40.0311 11.534C40.6098 11.954 41.0298 12.5 41.2911 13.172C41.5618 13.844 41.7158 14.6513 41.7531 15.594C41.7625 15.8927 41.7671 16.21 41.7671 16.546C41.7671 16.882 41.7625 17.218 41.7531 17.554C41.7438 17.8807 41.7345 18.1933 41.7251 18.492C41.6598 20.1907 41.2211 21.4087 40.4091 22.146C39.6065 22.874 38.3045 23.238 36.5031 23.238ZM50.642 23V3.442H47.002V0.6H57.488V3.442H53.848V23H50.642ZM63.3281 23V0.6H71.2661V2.812H65.7921V10.61H70.9861V12.822H65.7921V23H63.3281ZM77.4453 23V0.6H79.9093V20.788H85.1453V23H77.4453ZM91.0156 23V0.6H93.4796V23H91.0156ZM99.6645 23L102.408 11.548L99.7905 0.6H102.198L103.374 5.878L104.074 10.526H104.998L105.698 5.878L106.846 0.6H109.254L106.706 11.618L109.366 23H106.958L105.726 17.456L104.998 12.752H104.074L103.346 17.456L102.086 23H99.6645Z" fill="#D1A2FF"/>
</svg>
